# AST/ASF file generated using VICON BodyLanguage
# -----------------------------------------------
:version 1.10
:name VICON
:units
  mass 1.0
  length 0.45
  angle deg
:documentation
   .ast/.asf automatically generated from VICON data using
   VICON BodyBuilder and BodyLanguage model FoxedUp or BRILLIANT.MOD
:root
   order TX TY TZ RX RY RZ
   axis XYZ
   position 0 0 0  
   orientation 0 0 0 
:bonedata
  begin
     id 1 
     name lhipjoint
     direction 0.611804 -0.747784 0.257906 
     length 2.29243 
     axis 0 0 0  XYZ
  end
  begin
     id 2 
     name lfemur
     direction 0.34202 -0.939693 0  
     length 7.31159  
     axis 0 0 20  XYZ
    dof rx ry rz
    limits (-160.0 20.0)
           (-70.0 70.0)
           (-60.0 70.0)
  end
  begin
     id 3 
     name ltibia
     direction 0.34202 -0.939693 0   
     length 7.33391   
     axis 0 0 20   XYZ
    dof rx
    limits (-10.0 170.0)
  end
  begin
     id 4 
     name lfoot
     direction 0.122263 -0.335914 0.933924   
     length 1.76083   
     axis -90 7.62852e-016 20   XYZ
    dof rx rz
    limits (-45.0 90.0)
           (-70.0 20.0)
  end
  begin
     id 5 
     name ltoes
     direction 1.53533e-011 -4.2177e-011 1   
     length 0.879206   
     axis -90 7.62852e-016 20   XYZ
    dof rx
    limits (-90.0 20.0)
  end
  begin
     id 6 
     name rhipjoint
     direction -0.646469 -0.721248 0.248754   
     length 2.37677  
     axis 0 0 0  XYZ 
  end
  begin
     id 7 
     name rfemur
     direction -0.34202 -0.939693 0   
     length 7.18623   
     axis 0 0 -20   XYZ
    dof rx ry rz
    limits (-160.0 20.0)
           (-70.0 70.0)
           (-70.0 60.0)
  end
  begin
     id 8 
     name rtibia
     direction -0.34202 -0.939693 0   
     length 7.36567   
     axis 0 0 -20   XYZ
    dof rx
    limits (-10.0 170.0)
 end
 begin
     id 9 
     name rfoot
     direction -0.126681 -0.348054 0.928876   
     length 1.71902  
     axis -90 -7.62852e-016 -20   XYZ
    dof rx rz
    limits (-45.0 90.0)
           (-20.0 70.0)
  end
  begin
     id 10 
     name rtoes
     direction -1.53551e-011 -4.21898e-011 1   
     length 0.857792   
     axis -90 -7.62852e-016 -20   XYZ
    dof rx
    limits (-90.0 20.0)
  end
  begin
     id 11 
     name lowerback
     direction 0.0106509 0.999778 0.0181844   
     length 2.07668   
     axis 0 0 0   XYZ
    dof rx ry rz
    limits (-20.0 45.0)
           (-30.0 30.0)
           (-30.0 30.0)
  end
  begin
     id 12 
     name upperback
     direction -0.00456018 0.999989 -0.000590935   
     length 2.08011   
     axis 0 0 0   XYZ
    dof rx ry rz
    limits (-20.0 45.0)
           (-30.0 30.0)
           (-30.0 30.0)
  end
  begin
     id 13 
     name thorax
     direction -0.00910382 0.999916 -0.00923765   
     length 2.07397   
     axis 0 0 0   XYZ
    dof rx ry rz
    limits (-20.0 45.0)
           (-30.0 30.0)
           (-30.0 30.0)
  end
  begin
     id 14 
     name lowerneck
     direction 0.00171967 0.99778 0.0665733   
     length 1.67556   
     axis 0 0 0   XYZ
    dof rx ry rz
    limits (-20.0 45.0)
           (-30.0 30.0)
           (-30.0 30.0)
  end
  begin
     id 15 
     name upperneck
     direction -0.0143166 0.991302 -0.130828   
     length 1.68462   
     axis 0 0 0   XYZ
    dof rx ry rz
    limits (-20.0 45.0)
           (-30.0 30.0)
           (-30.0 30.0)
  end
  begin
     id 16
     name head
     direction -0.00606378 0.998665 -0.0512995  
     length 1.69269  
     axis 0 0 0   XYZ
    dof rx ry rz
    limits (-20.0 45.0)
           (-30.0 30.0)
           (-30.0 30.0)
  end
  begin
     id 17 
     name lclavicle
     direction 0.9638 0.179341 0.197297  
     length 4.12888  
     axis 0 0 0   XYZ
    dof ry rz
    limits (-20.0 10.0)
           (0.0 20.0)
  end
  begin
     id 18 
     name lhumerus
     direction 1 -4.48972e-011 -2.47351e-027   
     length 5.01834   
     axis -180 -30 -90   XYZ
    dof rx ry rz
    limits (-60.0 90.0)
           (-90.0 90.0)
           (-90.0 90.0)
  end
  begin
     id 19
     name lradius
     direction 1 -4.48965e-011 1.51591e-026   
     length 3.4869   
     axis -180 -30 -90   XYZ
    dof rx
    limits (-10.0 170.0)
  end
  begin
     id 20
     name lwrist
     direction 1 -4.48957e-011 2.70032e-026   
     length 1.74345   
     axis -1.81515e-014 90 90   XYZ
    dof ry
    limits (-180.0 0.0)
 end
  begin
     id 21 
     name lhand
     direction 1 -4.48951e-011 5.40064e-026   
     length 0.76799   
     axis -3.44607e-014 90 90   XYZ
    dof rx rz
    limits (-90.0 90.0)
           (-45.0 45.0)
  end
  begin
     id 22 
     name lfingers
     direction 1 -4.48971e-011 1.08013e-025   
     length 0.619174   
     axis -6.89214e-014 90 90   XYZ
    dof rx
    limits (0.0 90.0)
  end
  begin
     id 23
     name lthumb
     direction 0.707107 -6.34931e-011 0.707107   
     length 0.889013   
     axis -90 45 2.85299e-015   XYZ
    dof rx rz
    limits (-45.0 45.0)
           (-45.0 45.0)
  end
  begin
     id 24 
     name rclavicle
     direction -0.961409 0.252588 0.109054   
     length 4.04305  
     axis 0 0 0   XYZ 
    dof ry rz
    limits (-10.0 20.0)
           (-20.0 0.0)
  end
  begin
     id 25 
     name rhumerus
     direction -1 -4.4897e-011 1.33872e-017  
     length 4.70164   
     axis -180 30 90   XYZ
    dof rx ry rz
    limits (-90.0 60.0)
           (-90.0 90.0)
           (-90.0 90.0)
  end
  begin
     id 26 
     name rradius
     direction -1 -4.48954e-011 1.83844e-026   
     length 3.49911   
     axis -180 30 90   XYZ
    dof rx
    limits (-10.0 170.0)
  end
  begin
     id 27 
     name rwrist
     direction -1 -4.49008e-011 2.70032e-026   
     length 1.74955   
     axis -1.81515e-014 -90 -90   XYZ
    dof ry
    limits (-180.0 0.0)
  end
  begin
     id 28
     name rhand
     direction -1 -4.48916e-011 5.40064e-026   
     length 0.739335   
     axis -3.44607e-014 -90 -90   XYZ
    dof rx rz
    limits (-90.0 90.0)
           (-45.0 45.0)
  end
  begin
     id 29
     name rfingers
     direction -1 -4.48987e-011 1.08013e-025   
     length 0.596071   
     axis -6.89214e-014 -90 -90   XYZ
    dof rx
    limits (0.0 90.0)
  end
  begin
     id 30
     name rthumb
     direction -0.707107 -6.34935e-011 0.707107   
     length 0.855843   
     axis -90 -45 -2.85299e-015   XYZ
    dof rx rz
    limits (-45.0 45.0)
           (-45.0 45.0)
  end
:hierarchy
  begin
    root lhipjoint rhipjoint lowerback
    lhipjoint lfemur
    lfemur ltibia
    ltibia lfoot
    lfoot ltoes
    rhipjoint rfemur
    rfemur rtibia
    rtibia rfoot
    rfoot rtoes
    lowerback upperback
    upperback thorax
    thorax lowerneck lclavicle rclavicle
    lowerneck upperneck
    upperneck head
    lclavicle lhumerus
    lhumerus lradius
    lradius lwrist
    lwrist lhand lthumb
    lhand lfingers
    rclavicle rhumerus
    rhumerus rradius
    rradius rwrist
    rwrist rhand rthumb
    rhand rfingers
  end

#!OML:ASF I:\salsa\salsa 7_09\Patient 1\Session 1\dancermale.ASF
:FULLY-SPECIFIED
:DEGREES
355
root 8.46207 16.805 1.51891 179.179 66.2246 173.739
lowerback -0.118805 -0.816881 -1.93787
upperback -2.11761 -1.0727 0.934029
thorax -2.05135 -0.482812 2.06162
lowerneck -4.15555 0.0484868 1.08474
upperneck 17.9431 1.3839 -5.38144
head 6.14961 0.555135 -1.77628
rclavicle -2.95879e-014 -5.1684e-015
rhumerus -21.0752 3.55499 -87.4999
rradius 83.8882
rwrist -17.2959
rhand -55.7027 -2.24808
rfingers 7.12502
rthumb -28.052 -30.1709
lclavicle -2.95879e-014 -5.1684e-015
lhumerus -1.03402 -15.1102 92.8005
lradius 65.2264
lwrist 40.2354
lhand -16.1683 48.3185
lfingers 7.12502
lthumb 10.0378 -281.941
rfemur -32.1161 4.65229 15.0255
rtibia 71.7053
rfoot -6.85638 5.57921
rtoes 9.77029
lfemur -32.6797 3.6159 -23.987
ltibia 32.6466
lfoot -6.36059 -2.39274
ltoes -8.06858
356
root 8.43512 16.7989 1.56575 179.069 65.2324 173.461
lowerback -0.12247 -0.907477 -1.97675
upperback -2.1605 -1.19641 0.78078
thorax -2.08961 -0.544387 1.92823
lowerneck -4.19053 0.0820931 0.860951
upperneck 18.1456 1.43633 -5.14151
head 6.21992 0.585365 -1.65961
rclavicle -2.9768e-014 5.56597e-015
rhumerus -20.7083 3.02089 -86.3705
rradius 83.443
rwrist -18.2306
rhand -54.9883 -3.00761
rfingers 7.12502
rthumb -27.3689 -31.0403
lclavicle -2.9768e-014 5.56597e-015
lhumerus -3.18332 -15.2603 93.773
lradius 65.6511
lwrist 38.6745
lhand -13.1438 48.2112
lfingers 7.12502
lthumb 12.9546 -282.211
rfemur -31.5604 5.847 14.716
rtibia 69.975
rfoot -5.15542 7.09386
rtoes 10.5364
lfemur -32.616 3.4079 -24.3523
ltibia 31.8177
lfoot -6.09468 -3.07765
ltoes -8.6261
357
root 8.40029 16.7959 1.61526 179.104 64.0736 173.394
lowerback -0.0534959 -0.995226 -1.89508
upperback -2.19798 -1.31689 0.607652
thorax -2.16677 -0.606426 1.7083
lowerneck -4.18878 0.0576925 0.75721
upperneck 18.3425 1.41078 -4.97986
head 6.28007 0.581443 -1.59297
rclavicle -4.52856e-015 -1.63003e-014
rhumerus -20.3793 2.25072 -85.1774
rradius 83.1462
rwrist -19.4668
rhand -54.0205 -3.65516
rfingers 7.12502
rthumb -26.4429 -31.8306
lclavicle -4.52856e-015 -1.63003e-014
lhumerus -5.79615 -16.4419 94.8288
lradius 66.8876
lwrist 40.8989
lhand -15.6777 48.91
lfingers 7.12502
lthumb 10.5111 -281.373
rfemur -30.6317 6.45442 14.5762
rtibia 67.6336
rfoot -3.79947 8.34302
rtoes 13.6184
lfemur -32.4877 3.0029 -24.6543
ltibia 30.9221
lfoot -5.68618 -3.77761
ltoes -9.22293
358
root 8.35756 16.7935 1.67333 179.66 62.8439 173.846
lowerback -0.00181914 -1.05983 -1.61332
upperback -2.2652 -1.40134 0.509805
thorax -2.26998 -0.652782 1.45335
lowerneck -4.047 -0.0272065 0.770364
upperneck 18.4351 1.3097 -4.96215
head 6.28126 0.542068 -1.5963
rclavicle 3.36629e-014 2.38542e-015
rhumerus -20.0641 1.37207 -83.8514
rradius 82.9094
rwrist -20.9894
rhand -52.7588 -4.10362
rfingers 7.12502
rthumb -25.2347 -32.455
lclavicle 3.36629e-014 2.38542e-015
lhumerus -8.59137 -17.4941 95.9722
lradius 67.9586
lwrist 42.3428
lhand -14.8765 48.2173
lfingers 7.12502
lthumb 11.2838 -282.106
rfemur -29.4312 6.77779 14.7116
rtibia 64.9686
rfoot -3.71074 9.42263
rtoes 15.6903
lfemur -32.4859 2.48567 -24.6573
ltibia 30.0415
lfoot -5.2833 -4.44737
ltoes -8.43874
359
root 8.30664 16.7942 1.73534 180.216 61.2501 174.383
lowerback 0.155192 -1.2169 -1.24702
upperback -2.34129 -1.6085 0.446234
thorax -2.44039 -0.761732 1.1917
lowerneck -3.72695 -0.114881 0.857149
upperneck 18.4166 1.20724 -5.02703
head 6.21645 0.50565 -1.63763
rclavicle -3.05694e-014 -4.77083e-015
rhumerus -19.8479 0.531553 -82.4488
rradius 82.6953
rwrist -22.4688
rhand -51.311 -4.14852
rfingers 7.12502
rthumb -23.8469 -32.6883
lclavicle -3.05694e-014 -4.77083e-015
lhumerus -11.5735 -18.3907 97.2381
lradius 68.9711
lwrist 43.6157
lhand -14.5137 48.9562
lfingers 7.12502
lthumb 11.6337 -281.387
rfemur -27.8059 6.28866 15.0118
rtibia 62.894
rfoot -6.80927 9.29488
rtoes 10.8151
lfemur -32.4423 1.66478 -24.6307
ltibia 29.1265
lfoot -4.84972 -5.21235
ltoes -7.70158
360
root 8.2518 16.7995 1.79888 180.767 59.4083 174.913
lowerback 0.251335 -1.38023 -0.715059
upperback -2.37489 -1.82181 0.288523
thorax -2.54404 -0.88003 0.740203
lowerneck -3.56605 -0.262656 0.894755
upperneck 18.5048 0.992985 -4.87349
head 6.20873 0.423265 -1.60871
rclavicle 4.14342e-015 -4.37326e-015
rhumerus -19.7386 -0.697281 -81.0198
rradius 82.6829
rwrist -24.49
rhand -49.2658 -3.38539
rfingers 7.12502
rthumb -21.8843 -32.1678
lclavicle 4.14342e-015 -4.37326e-015
lhumerus -14.6715 -19.2467 98.5951
lradius 70.0378
lwrist 45.0978
lhand -14.4233 49.3513
lfingers 7.12502
lthumb 11.7209 -280.997
rfemur -25.7494 5.0205 15.5669
rtibia 60.473
rfoot -11.3279 7.3834
rtoes 0.618482
lfemur -32.3597 0.621433 -24.5977
ltibia 28.115
lfoot -4.06702 -6.10767
ltoes -8.85265
361
root 8.1905 16.8143 1.86413 181.395 57.5719 175.374
lowerback 0.130548 -1.53067 -0.117263
upperback -2.34582 -2.01637 0.0942605
thorax -2.4703 -0.992186 0.207692
lowerneck -3.50823 -0.417917 0.936586
upperneck 18.4834 0.751021 -4.71208
head 6.18377 0.323636 -1.57925
rclavicle -1.19395e-013 -1.90833e-014
rhumerus -19.6896 -1.96033 -79.6192
rradius 82.8392
rwrist -26.3147
rhand -47.2399 -2.67276
rfingers 7.12502
rthumb -19.9379 -31.67
lclavicle -1.19395e-013 -1.90833e-014
lhumerus -17.6926 -19.9248 99.8761
lradius 71.0787
lwrist 46.7691
lhand -14.4538 49.5866
lfingers 7.12502
lthumb 11.6915 -280.76
rfemur -23.4409 3.66589 16.2575
rtibia 57.2035
rfoot -15.5682 4.29177
rtoes -6.90475
lfemur -32.3596 -0.523979 -24.5268
ltibia 26.9961
lfoot -3.01959 -6.82908
ltoes -10.1654
362
root 8.11645 16.8402 1.93816 181.836 55.7517 175.582
lowerback 0.0265314 -1.75542 0.135545
upperback -2.24311 -2.31504 0.052974
thorax -2.31693 -1.14784 0.0254641
lowerneck -3.4496 -0.485953 0.968378
upperneck 18.2056 0.649361 -4.79836
head 6.08256 0.270933 -1.61653
rclavicle -6.02566e-016 -1.94809e-014
rhumerus -19.5161 -2.88349 -78.1197
rradius 83
rwrist -27.9398
rhand -45.3011 -1.54986
rfingers 7.12502
rthumb -18.0734 -30.7302
lclavicle -6.02566e-016 -1.94809e-014
lhumerus -20.4711 -20.2378 101.104
lradius 72.0124
lwrist 48.3771
lhand -14.7199 49.6097
lfingers 7.12502
lthumb 11.4349 -280.722
rfemur -21.2529 1.2485 16.8022
rtibia 53.3361
rfoot -18.3281 1.13688
rtoes -6.81572
lfemur -32.4444 -1.70984 -24.5256
ltibia 25.8803
lfoot -2.20518 -7.32673
ltoes -11.3276
363
root 8.0339 16.8815 2.03024 182.786 54.3501 176.326
lowerback 0.112198 -1.84399 0.452609
upperback -2.2273 -2.42524 0.234602
thorax -2.35446 -1.20721 0.0394455
lowerneck -3.43821 -0.559825 0.820223
upperneck 17.984 0.541595 -4.76952
head 6.00759 0.211104 -1.58765
rclavicle -5.36719e-014 -1.78906e-014
rhumerus -19.4798 -3.5438 -76.5251
rradius 82.9664
rwrist -28.8853
rhand -43.4308 -0.676152
rfingers 7.12502
rthumb -16.2732 -30.0133
lclavicle -5.36719e-014 -1.78906e-014
lhumerus -23.1681 -20.3165 102.325
lradius 73.1626
lwrist 49.3296
lhand -14.5566 50.7723
lfingers 7.12502
lthumb 11.5924 -279.568
rfemur -19.4859 -0.647843 17.7884
rtibia 49.3344
rfoot -20.3865 -1.7471
rtoes -5.9938
lfemur -32.662 -2.4469 -23.9526
ltibia 24.6446
lfoot -1.26912 -7.80021
ltoes -12.0746
364
root 7.95067 16.9281 2.13028 183.495 53.3137 176.967
lowerback 0.708692 -1.77146 0.725035
upperback -2.42852 -2.31262 0.355868
thorax -2.90305 -1.15472 0.0337767
lowerneck -3.09663 -0.719753 0.725007
upperneck 17.8066 0.316058 -4.68249
head 5.8859 0.111594 -1.55517
rclavicle -1.8313e-014 -3.57812e-015
rhumerus -19.9399 -4.39968 -74.8863
rradius 83.0838
rwrist -30.4325
rhand -41.0845 -0.324242
rfingers 7.12502
rthumb -14.013 -29.8319
lclavicle -1.8313e-014 -3.57812e-015
lhumerus -26.2575 -20.7111 103.547
lradius 73.9987
lwrist 50.0186
lhand -14.3706 51.1258
lfingers 7.12502
lthumb 11.7718 -279.225
rfemur -17.7892 -1.77753 18.6961
rtibia 45.3943
rfoot -21.9865 -3.95006
rtoes -4.43539
lfemur -32.6039 -2.80387 -23.2777
ltibia 23.1158
lfoot -0.108295 -8.29016
ltoes -12.124
365
root 7.85719 16.98 2.23372 184.458 52.5616 177.726
lowerback 0.587379 -1.61312 1.1738
upperback -2.1587 -2.09767 0.430388
thorax -2.56918 -1.05667 -0.156488
lowerneck -3.18364 -0.847391 0.797232
upperneck 17.2824 0.0776233 -4.66878
head 5.72917 -0.00743867 -1.57422
rclavicle -4.50247e-014 -1.59028e-015
rhumerus -19.5532 -5.40746 -73.6519
rradius 82.9855
rwrist -31.3751
rhand -38.8336 -0.128174
rfingers 7.12502
rthumb -11.8432 -29.7733
lclavicle -4.50247e-014 -1.59028e-015
lhumerus -28.3845 -21.1334 104.183
lradius 75.0438
lwrist 50.3016
lhand -14.0362 51.5084
lfingers 7.12502
lthumb 12.0942 -278.861
rfemur -16.6409 -2.12287 19.6428
rtibia 41.7904
rfoot -22.9182 -5.77269
rtoes -4.36029
lfemur -32.761 -2.90155 -22.4112
ltibia 21.6297
lfoot 0.600038 -8.67263
ltoes -14.1406
